# xmcd
#
# Track frame offsets: 
#        150
#        8385
#        20147
#        30907
#        40830
#        56935
#        64607
#        71355
#        85130
#        92517
#        100267
#        110430
#
# Disc length: 1554 seconds
#
# Revision: 0
# Processed by: cddbd v1.4PL0 Copyright (c) Steve Scherf et al.
# Submitted via: ExactAudioCopy v0.90a11
#
DISCID=8a06100c
DTITLE=Pressure Point - To Be Continued
DYEAR=1900
DGENRE=
TTITLE0=To Be Cont...
TTITLE1=C St. Pass
TTITLE2=Links On The Chain
TTITLE3=Face In The Mirror
TTITLE4=Drinkin' with the damned
TTITLE5=This is Sacto
TTITLE6=Take It Back
TTITLE7=The Great Divide
TTITLE8=Cowards
TTITLE9=The Ballad of Richard Davis
TTITLE10=Home Invasion
TTITLE11=Uprise
EXTD=
EXTT0=
EXTT1=
EXTT2=
EXTT3=
EXTT4=
EXTT5=
EXTT6=
EXTT7=
EXTT8=
EXTT9=
EXTT10=
EXTT11=
PLAYORDER=
